PathFileType   4   (X/Y/Z)
DataRate	CameraRate	NumFrames	NumMarkers	Units	OrigDataRate	OrigDataStartFrame	OrigNumFrames
120.0	120.0	8	37	mm	120.0	81	161
Frame#	Time	midhip	hip_r	hip_l	knee_r	knee_l	ankle_r	ankle_l	midasis	asis_r	asis_l	psis_r	psis_l	epicondLat_r	epicondLat_l	epicondMed_r	epicondMed_l	malleolusLat_r	malleolusLat_l	malleolusMedv_r	malleolusMedv_l	neck	subclavicle_r	subclavicle_l	sternalnotch	xyphoidprocess	thighwand_r	thighwand_l	upperleg1_r	upperleg1_l	upperleg2_r	upperleg2_l	shankwand_r	shankwand_l	lowerleg1_r	lowerleg1_l	toe_r	toe_l
 	 	X1	Y1	Z1	X2	Y2	Z2	X3	Y3	Z3	X4	Y4	Z4	X5	Y5	Z5	X6	Y6	Z6	X7	Y7	Z7	X8	Y8	Z8	X9	Y9	Z9	X10	Y10	Z10	X11	Y11	Z11	X12	Y12	Z12	X13	Y13	Z13	X14	Y14	Z14	X15	Y15	Z15	X16	Y16	Z16	X17	Y17	Z17	X18	Y18	Z18	X19	Y19	Z19	X20	Y20	Z20	X21	Y21	Z21	X22	Y22	Z22	X23	Y23	Z23	X24	Y24	Z24	X25	Y25	Z25	X26	Y26	Z26	X27	Y27	Z27	X28	Y28	Z28	X29	Y29	Z29	X30	Y30	Z30	X31	Y31	Z31	X32	Y32	Z32	X33	Y33	Z33	X34	Y34	Z34	X35	Y35	Z35	X36	Y36	Z36	X37	Y37	Z37

	81	0.94167	1813.193	839.903	-239.382	1818.460	822.966	-180.116	1801.713	816.461	-296.206	1910.396	459.793	-200.017	1739.349	459.743	-306.419	1916.642	60.995	-189.563	1505.868	119.704	-311.990	1868.636	900.424	-245.100	1874.524	904.748	-145.139	1862.749	896.101	-345.060	1713.515	927.170	-204.970	1710.257	927.284	-259.780	1934.433	463.174	-150.664	1747.983	459.774	-360.231	1882.477	451.128	-241.315	1732.056	447.537	-262.339	1920.666	62.062	-151.289	1509.538	117.811	-350.268	1927.175	77.378	-222.898	1523.845	129.687	-285.954	1759.477	1339.337	-237.465	1857.453	1266.409	-185.330	1859.300	1262.974	-292.977	1843.693	1275.768	-244.955	1895.294	1108.157	-237.657	1993.740	659.168	-230.991	1900.708	600.783	-287.124	1928.986	688.958	-158.806	1839.180	655.328	-346.611	1941.466	604.198	-162.029	1824.409	568.790	-343.616	1938.951	186.595	-86.559	1548.887	239.312	-417.253	1928.159	192.436	-127.223	1559.004	239.070	-375.155	2035.250	42.645	-198.090	1598.306	40.326	-299.630
	82	0.95000	1819.952	840.733	-238.476	1824.808	823.538	-178.980	1808.163	816.991	-295.082	1914.346	459.850	-199.199	1745.103	460.178	-307.621	1917.054	61.018	-189.457	1509.396	121.584	-313.278	1875.195	900.860	-243.963	1880.992	905.237	-143.984	1869.398	896.482	-343.943	1720.132	927.911	-204.125	1716.802	928.023	-258.830	1938.072	462.938	-149.676	1753.327	460.618	-361.495	1886.893	451.732	-240.493	1738.217	447.557	-263.682	1920.890	61.980	-151.161	1512.536	120.038	-351.619	1927.435	77.348	-222.716	1527.630	131.783	-287.518	1765.085	1339.807	-236.374	1863.169	1267.067	-184.251	1865.175	1263.795	-291.921	1849.486	1276.474	-243.848	1901.500	1108.992	-236.771	1999.343	658.836	-229.116	1907.040	600.825	-288.433	1934.549	689.036	-157.103	1845.013	655.825	-347.015	1946.494	604.188	-160.501	1830.144	569.413	-344.645	1939.920	186.089	-86.141	1551.941	242.296	-418.078	1929.228	192.161	-126.746	1562.386	241.627	-376.175	2035.603	42.244	-197.917	1599.257	40.382	-300.096
	83	0.95833	1826.842	841.934	-237.786	1831.051	824.102	-177.877	1814.516	817.558	-293.995	1918.230	459.895	-198.416	1750.814	460.641	-308.902	1917.411	61.073	-189.374	1513.085	123.416	-314.663	1881.687	901.287	-242.830	1887.387	905.681	-142.832	1875.987	896.893	-342.827	1726.675	928.678	-203.307	1723.250	928.853	-257.861	1941.649	462.698	-148.730	1758.689	461.487	-362.823	1891.336	452.262	-240.151	1744.162	447.722	-264.832	1921.055	61.934	-151.057	1515.710	122.222	-353.055	1927.598	77.349	-222.562	1531.460	133.729	-289.157	1770.697	1340.261	-235.299	1868.878	1267.742	-183.224	1871.027	1264.617	-290.848	1855.244	1277.190	-242.763	1907.702	1109.841	-235.876	2004.838	658.453	-227.293	1913.264	600.914	-289.657	1939.914	688.935	-155.644	1850.820	656.360	-347.430	1951.339	604.125	-159.244	1835.775	569.953	-345.574	1940.819	185.613	-85.746	1555.144	245.243	-418.959	1930.184	191.879	-126.306	1565.831	244.213	-377.220	2035.911	41.917	-197.747	1600.241	40.450	-300.548
	84	0.96667	1833.350	843.031	-237.516	1837.182	824.653	-176.818	1820.743	818.160	-292.952	1922.018	459.927	-197.674	1756.552	461.108	-310.208	1917.707	61.143	-189.313	1516.949	125.215	-316.140	1888.092	901.703	-241.716	1893.707	906.077	-141.706	1882.478	897.329	-341.727	1733.128	929.469	-202.498	1729.577	929.770	-256.855	1945.157	462.460	-147.843	1764.131	462.353	-364.164	1895.709	452.535	-239.682	1750.087	448.059	-265.744	1921.174	61.909	-150.977	1519.090	124.366	-354.571	1927.720	77.382	-222.418	1535.299	135.650	-290.841	1776.309	1340.787	-234.199	1874.609	1268.455	-182.129	1876.839	1265.438	-289.798	1860.966	1277.910	-241.701	1913.834	1110.694	-234.930	2010.180	658.002	-225.587	1919.423	601.056	-290.790	1945.069	688.683	-154.361	1856.647	657.007	-347.842	1956.009	603.957	-158.044	1841.419	570.510	-346.378	1941.687	185.170	-85.387	1558.563	248.120	-419.898	1931.168	191.621	-125.910	1569.406	246.730	-378.211	2036.178	41.646	-197.593	1601.279	40.543	-300.988
	85	0.97500	1839.436	843.917	-237.485	1843.200	825.186	-175.812	1826.828	818.789	-291.961	1925.679	459.950	-196.982	1762.385	461.554	-311.493	1917.935	61.212	-189.270	1520.988	126.993	-317.697	1894.394	902.105	-240.643	1899.948	906.424	-140.625	1888.839	897.787	-340.661	1739.483	930.275	-201.687	1735.787	930.745	-255.829	1948.581	462.226	-147.029	1769.708	463.184	-365.474	1899.534	452.899	-239.149	1756.067	448.410	-266.649	1921.260	61.890	-150.919	1522.695	126.474	-356.156	1927.840	77.442	-222.276	1539.315	137.635	-292.602	1781.947	1341.314	-233.073	1880.288	1269.138	-181.049	1882.573	1266.263	-288.776	1866.650	1278.626	-240.662	1919.818	1111.515	-234.063	2015.339	657.477	-224.053	1925.556	601.259	-291.831	1950.189	688.489	-153.064	1862.454	657.660	-348.239	1960.532	603.706	-156.883	1847.112	571.147	-347.145	1942.561	184.760	-85.075	1562.263	250.891	-420.900	1932.099	191.381	-125.592	1573.223	249.154	-379.221	2036.410	41.415	-197.468	1602.403	40.682	-301.428
	86	0.98333	1845.484	844.782	-237.185	1849.111	825.697	-174.871	1832.763	819.431	-291.031	1929.181	459.966	-196.348	1768.374	461.954	-312.726	1918.091	61.268	-189.242	1525.191	128.767	-319.315	1900.578	902.494	-239.630	1906.107	906.726	-139.608	1895.050	898.262	-339.651	1745.733	931.087	-200.876	1741.889	931.738	-254.811	1951.904	462.002	-146.303	1775.475	463.952	-366.724	1902.887	453.398	-238.828	1762.221	448.685	-267.431	1921.318	61.862	-150.882	1526.533	128.548	-357.791	1927.954	77.479	-222.164	1543.672	139.555	-294.417	1787.555	1341.745	-231.967	1885.941	1269.795	-180.031	1888.253	1267.075	-287.751	1872.293	1279.331	-239.642	1925.833	1112.335	-233.251	2020.298	656.884	-222.735	1931.698	601.534	-292.783	1955.225	688.316	-151.849	1868.244	658.264	-348.628	1964.878	603.410	-155.901	1852.883	571.767	-347.846	1943.460	184.382	-84.815	1566.302	253.523	-421.972	1933.033	191.218	-125.330	1577.384	251.416	-380.343	2036.609	41.215	-197.378	1603.670	40.898	-301.891
	87	0.99167	1851.546	845.867	-237.091	1854.919	826.178	-174.007	1838.552	820.073	-290.172	1932.495	459.975	-195.781	1774.564	462.288	-313.890	1918.175	61.300	-189.227	1529.544	130.553	-320.969	1906.635	902.868	-238.694	1912.177	906.989	-138.673	1901.093	898.746	-338.715	1751.873	931.892	-200.073	1747.911	932.689	-253.863	1955.103	461.785	-145.674	1781.473	464.633	-367.899	1906.134	453.799	-238.565	1768.358	449.008	-267.881	1921.352	61.816	-150.862	1530.606	130.589	-359.455	1928.038	77.457	-222.107	1548.082	141.432	-296.251	1793.091	1342.189	-230.882	1891.571	1270.467	-179.019	1893.876	1267.852	-286.784	1877.891	1280.017	-238.647	1931.812	1113.147	-232.412	2025.050	656.238	-221.663	1937.870	601.892	-293.642	1960.079	688.108	-150.878	1874.124	658.855	-348.989	1969.085	603.104	-155.117	1858.659	572.181	-348.400	1944.385	184.031	-84.605	1570.726	255.986	-423.123	1934.275	191.096	-125.070	1581.926	253.482	-381.537	2036.777	41.036	-197.324	1605.167	41.232	-302.409
	88	1.00000	1857.374	846.557	-236.557	1860.630	826.626	-173.224	1844.198	820.698	-289.390	1935.601	459.976	-195.277	1780.983	462.541	-314.978	1918.199	61.308	-189.217	1534.031	132.364	-322.632	1912.556	903.227	-237.850	1918.150	907.223	-137.830	1906.962	899.232	-337.869	1757.895	932.682	-199.293	1753.872	933.552	-253.034	1958.160	461.573	-145.141	1787.733	465.209	-368.992	1909.250	454.098	-238.247	1774.675	449.215	-268.496	1921.368	61.753	-150.851	1534.909	132.600	-361.121	1928.074	77.413	-222.077	1552.525	143.357	-298.129	1798.565	1342.630	-229.827	1897.150	1271.119	-178.050	1899.439	1268.613	-285.840	1883.442	1280.673	-237.688	1937.724	1113.938	-231.615	2029.605	655.557	-220.849	1944.078	602.334	-294.401	1964.820	687.862	-150.145	1880.056	659.466	-349.306	1973.209	602.818	-154.507	1864.574	572.612	-348.969	1945.324	183.703	-84.436	1575.564	258.261	-424.353	1935.506	190.914	-124.908	1586.890	255.436	-382.835	2036.920	40.871	-197.303	1607.010	41.734	-303.017
